<svg width="192" height="84" viewBox="0 0 192 84" fill="none" xmlns="http://www.w3.org/2000/svg">
<path d="M69.721 47.1756C69.4663 55.2467 66.6443 63.0264 61.6652 69.3838C56.6861 75.7412 49.8093 80.3451 42.0343 82.5263C34.2593 84.7076 25.9913 84.3525 18.4319 81.5127C10.8725 78.6729 4.41576 73.4964 0 66.7356L0.0110016 66.7236L0.0590019 66.6996C0.0710019 66.6996 0.0710002 66.6876 0.0830002 66.6876C0.0950002 66.6636 0.107003 66.6636 0.119003 66.6516L12.211 58.7516L63.556 25.1876V25.1996C63.687 25.3906 63.806 25.5816 63.926 25.7846C64.213 26.2266 64.476 26.6846 64.738 27.1476C64.989 27.5776 65.228 28.0076 65.455 28.4476C65.802 29.0926 66.125 29.7616 66.411 30.4316C66.555 30.7296 66.6867 31.0296 66.806 31.3316C66.997 31.7736 67.164 32.2036 67.331 32.6576C67.463 32.9806 67.57 33.3146 67.678 33.6496C67.778 33.9006 67.857 34.1496 67.941 34.4136C68.263 35.4296 68.55 36.4576 68.789 37.5086C69.5215 40.6762 69.8349 43.9263 69.721 47.1756Z" fill="url(#paint0_linear_15:28)"/>
<g style="mix-blend-mode:multiply" opacity="0.16">
<g style="mix-blend-mode:multiply" opacity="0.16">
<path d="M68.789 37.5085L0 66.7355L63.556 25.1895C66.0161 28.9536 67.788 33.1247 68.789 37.5085Z" fill="black"/>
</g>
</g>
<path d="M75.7795 17.2074L75.7675 17.2195C75.7555 17.2195 75.7435 17.2434 75.7205 17.2434C75.706 17.2654 75.685 17.2822 75.6605 17.2914L63.5605 25.2014L12.2145 58.7534C12.0835 58.5534 11.9635 58.3594 11.8445 58.1534C6.59829 49.8418 4.80091 39.8116 6.83446 30.1954C7.10189 28.9253 7.43298 27.6694 7.82646 26.4324C7.83575 26.413 7.84377 26.3929 7.85046 26.3725C7.86088 26.315 7.87696 26.2587 7.89846 26.2045C10.0877 19.4757 14.1148 13.4932 19.5249 8.93264C24.935 4.37205 31.5126 1.41511 38.5147 0.395786C45.5168 -0.623533 52.6644 0.335392 59.1503 3.16425C65.6361 5.99311 71.2017 10.5791 75.2185 16.4044C75.2353 16.4235 75.251 16.4436 75.2655 16.4644C75.4455 16.7054 75.6145 16.9564 75.7795 17.2074Z" fill="url(#paint1_linear_15:28)"/>
<g style="mix-blend-mode:multiply" opacity="0.25">
<g style="mix-blend-mode:multiply" opacity="0.25">
<path d="M63.9256 25.7865C60.5436 28.1765 56.6126 30.8865 52.3706 33.7565C50.1706 35.2385 47.9146 36.7915 45.5846 38.3215C43.2546 39.8515 40.8996 41.4155 38.5466 42.9695C36.1686 44.5105 33.7906 46.0405 31.4466 47.5575C29.1046 49.0515 26.7866 50.5215 24.5526 51.9425C20.0596 54.7745 15.8526 57.3795 12.2086 59.5665C8.58864 61.7765 5.50864 63.5335 3.37864 64.7995C1.50264 65.8995 0.319641 66.5564 0.0566406 66.6994C0.0708391 66.6773 0.0919178 66.6604 0.116638 66.6515L63.5536 25.1895C63.6866 25.3805 63.8056 25.5835 63.9256 25.7865Z" fill="black"/>
</g>
</g>
<g style="mix-blend-mode:screen" opacity="0.7">
<g style="mix-blend-mode:screen" opacity="0.7">
<path d="M75.7197 17.2434C75.7053 17.2653 75.6842 17.2821 75.6597 17.2914L12.2137 58.7534C12.0827 58.5534 11.9628 58.3594 11.8438 58.1534C15.2257 55.7754 19.1687 53.0534 23.4097 50.1834C25.6097 48.7014 27.8786 47.1724 30.1966 45.6184C32.5147 44.0894 34.8806 42.5244 37.2346 40.9704C39.6126 39.4294 41.9907 37.8994 44.3347 36.3824C46.6787 34.8654 48.9948 33.4194 51.2288 31.9974C55.7098 29.1654 59.9286 26.5604 63.5717 24.3614C67.1926 22.1514 70.2717 20.4064 72.4027 19.1404C74.2737 18.0434 75.4567 17.3864 75.7197 17.2434Z" fill="white"/>
</g>
</g>
<g style="mix-blend-mode:screen" opacity="0.25">
<g style="mix-blend-mode:screen" opacity="0.25">
<path d="M64.9656 45.8604C64.974 48.1818 64.7337 50.4972 64.2486 52.7673C63.3642 57.0367 61.6454 61.0894 59.1907 64.6927C56.736 68.2961 53.5939 71.3793 49.9446 73.7651C46.2953 76.151 42.2107 77.7925 37.9253 78.5957C33.64 79.3988 29.2381 79.3479 24.9726 78.4454C17.9611 77.005 11.6125 73.3126 6.89355 67.9304L7.24055 67.7034L64.9656 45.8604Z" fill="white"/>
</g>
</g>
<g style="mix-blend-mode:screen" opacity="0.25">
<g style="mix-blend-mode:screen" opacity="0.25">
<path d="M68.8849 16.0125L68.2039 16.4545L11.4229 31.6175C11.4469 31.4745 11.4699 31.3175 11.5059 31.1755C12.3932 26.9053 14.1148 22.8523 16.572 19.2489C19.0291 15.6455 22.1734 12.5626 25.8245 10.177C29.4757 7.79139 33.5619 6.15001 37.8487 5.34701C42.1356 4.544 46.5387 4.59517 50.8059 5.49755C57.8151 6.94369 64.162 10.6351 68.8849 16.0125Z" fill="white"/>
</g>
</g>
<g style="mix-blend-mode:multiply" opacity="0.16">
<g style="mix-blend-mode:multiply" opacity="0.16">
<path d="M69.721 47.1755C69.4663 55.2467 66.6443 63.0263 61.6652 69.3837C56.6861 75.7411 49.8093 80.345 42.0343 82.5263C34.2593 84.7075 25.9913 84.3524 18.4319 81.5127C10.8725 78.6729 4.41576 73.4964 0 66.7355C1.2086 68.3274 2.51337 69.8438 3.907 71.2765C6.70779 74.0676 9.90443 76.431 13.394 78.2905C16.85 80.1339 20.5703 81.4316 24.423 82.1375L27.315 82.5435C28.282 82.7115 29.262 82.6635 30.23 82.7345L31.688 82.7945L33.146 82.7235C34.1132 82.7017 35.0784 82.6256 36.037 82.4955L38.917 82.0535L41.737 81.3375C42.693 81.1375 43.589 80.7275 44.509 80.4375C45.4309 80.1323 46.3296 79.761 47.198 79.3265C48.9662 78.5232 50.6711 77.5872 52.298 76.5265L54.687 74.8415C55.44 74.2325 56.169 73.5875 56.91 72.9535C57.6421 72.3094 58.34 71.6274 59.001 70.9105L60.029 69.8595L60.937 68.7245C62.1788 67.2085 63.3125 65.6073 64.33 63.9325L65.716 61.3275C66.206 60.4675 66.493 59.5355 66.899 58.6395C67.09 58.1855 67.299 57.7395 67.473 57.2775L67.915 55.8435C68.19 54.8875 68.56 53.9195 68.763 52.9755C69.2028 51.064 69.5228 49.1269 69.721 47.1755Z" fill="black"/>
</g>
</g>
<g style="mix-blend-mode:screen" opacity="0.7">
<g style="mix-blend-mode:screen" opacity="0.7">
<path d="M75.2142 16.4063C75.1142 16.2873 74.9632 16.1063 74.7602 15.8693C74.3892 15.3793 73.7602 14.7103 73.0032 13.8383C70.8357 11.5243 68.4056 9.47112 65.7622 7.72038C64.0197 6.55436 62.1857 5.53134 60.2782 4.66137C58.1606 3.71157 55.966 2.94379 53.7182 2.36637C53.1442 2.21137 52.4992 2.09237 51.8892 1.94837C51.3282 1.81737 50.6832 1.76938 50.0892 1.66238C49.4682 1.57838 48.8582 1.49438 48.2372 1.39938C47.6042 1.32738 46.9832 1.31537 46.3492 1.26737C45.7162 1.24337 45.0832 1.18438 44.4492 1.16738L42.5262 1.23838C41.245 1.27461 39.9677 1.39452 38.7022 1.59738C38.0665 1.66327 37.4358 1.77084 36.8142 1.91938L34.9262 2.31938C33.6952 2.62937 32.4772 3.06038 31.2702 3.43038C30.1112 3.93038 28.9162 4.33838 27.8052 4.88838C27.2552 5.16338 26.7052 5.44937 26.1562 5.72437L25.3312 6.14236L24.5672 6.62039C23.5512 7.27839 22.5112 7.85137 21.5912 8.58037C19.7902 9.88416 18.1071 11.3434 16.5612 12.9413C15.8353 13.6486 15.1528 14.399 14.5172 15.1883C13.9082 15.9523 13.3232 16.6933 12.7732 17.3883C12.2732 18.1413 11.8052 18.8343 11.3512 19.5033C10.4792 20.8303 9.89317 22.0963 9.30817 23.1033C8.48317 24.9673 7.97017 26.1263 7.85017 26.3773C7.84348 26.3978 7.83546 26.4179 7.82617 26.4373C7.82617 26.4373 7.85017 26.3533 7.89817 26.2093C10.0874 19.4806 14.1145 13.4981 19.5246 8.93754C24.9347 4.37695 31.5123 1.41999 38.5144 0.400669C45.5165 -0.61865 52.6642 0.340274 59.15 3.16914C65.6358 5.998 71.2014 10.584 75.2182 16.4093L75.2142 16.4063Z" fill="white"/>
</g>
</g>
<path d="M94.0469 47.2734C94.0469 46.1016 93.6016 45.1953 92.7109 44.5547C91.8359 43.8984 90.2969 43.3359 88.0938 42.8672C85.9062 42.3984 84.1641 41.8359 82.8672 41.1797C81.5859 40.5234 80.6328 39.7422 80.0078 38.8359C79.3984 37.9297 79.0938 36.8516 79.0938 35.6016C79.0938 33.5234 79.9688 31.7656 81.7188 30.3281C83.4844 28.8906 85.7344 28.1719 88.4688 28.1719C91.3438 28.1719 93.6719 28.9141 95.4531 30.3984C97.25 31.8828 98.1484 33.7812 98.1484 36.0938H93.7891C93.7891 34.9062 93.2812 33.8828 92.2656 33.0234C91.2656 32.1641 90 31.7344 88.4688 31.7344C86.8906 31.7344 85.6562 32.0781 84.7656 32.7656C83.875 33.4531 83.4297 34.3516 83.4297 35.4609C83.4297 36.5078 83.8438 37.2969 84.6719 37.8281C85.5 38.3594 86.9922 38.8672 89.1484 39.3516C91.3203 39.8359 93.0781 40.4141 94.4219 41.0859C95.7656 41.7578 96.7578 42.5703 97.3984 43.5234C98.0547 44.4609 98.3828 45.6094 98.3828 46.9688C98.3828 49.2344 97.4766 51.0547 95.6641 52.4297C93.8516 53.7891 91.5 54.4688 88.6094 54.4688C86.5781 54.4688 84.7812 54.1094 83.2188 53.3906C81.6562 52.6719 80.4297 51.6719 79.5391 50.3906C78.6641 49.0938 78.2266 47.6953 78.2266 46.1953H82.5625C82.6406 47.6484 83.2188 48.8047 84.2969 49.6641C85.3906 50.5078 86.8281 50.9297 88.6094 50.9297C90.25 50.9297 91.5625 50.6016 92.5469 49.9453C93.5469 49.2734 94.0469 48.3828 94.0469 47.2734ZM125.453 41.6016C125.453 45.4609 124.57 48.5703 122.805 50.9297C121.039 53.2891 118.648 54.4688 115.633 54.4688C112.555 54.4688 110.133 53.4922 108.367 51.5391V63.75H104.031V28.6406H107.992L108.203 31.4531C109.969 29.2656 112.422 28.1719 115.562 28.1719C118.609 28.1719 121.016 29.3203 122.781 31.6172C124.562 33.9141 125.453 37.1094 125.453 41.2031V41.6016ZM121.117 41.1094C121.117 38.25 120.508 35.9922 119.289 34.3359C118.07 32.6797 116.398 31.8516 114.273 31.8516C111.648 31.8516 109.68 33.0156 108.367 35.3438V47.4609C109.664 49.7734 111.648 50.9297 114.32 50.9297C116.398 50.9297 118.047 50.1094 119.266 48.4688C120.5 46.8125 121.117 44.3594 121.117 41.1094ZM135.695 54H131.359V18H135.695V54ZM147.367 54H143.031V28.6406H147.367V54ZM142.68 21.9141C142.68 21.2109 142.891 20.6172 143.312 20.1328C143.75 19.6484 144.391 19.4062 145.234 19.4062C146.078 19.4062 146.719 19.6484 147.156 20.1328C147.594 20.6172 147.812 21.2109 147.812 21.9141C147.812 22.6172 147.594 23.2031 147.156 23.6719C146.719 24.1406 146.078 24.375 145.234 24.375C144.391 24.375 143.75 24.1406 143.312 23.6719C142.891 23.2031 142.68 22.6172 142.68 21.9141ZM160.211 22.5V28.6406H164.945V31.9922H160.211V47.7188C160.211 48.7344 160.422 49.5 160.844 50.0156C161.266 50.5156 161.984 50.7656 163 50.7656C163.5 50.7656 164.188 50.6719 165.062 50.4844V54C163.922 54.3125 162.812 54.4688 161.734 54.4688C159.797 54.4688 158.336 53.8828 157.352 52.7109C156.367 51.5391 155.875 49.875 155.875 47.7188V31.9922H151.258V28.6406H155.875V22.5H160.211ZM184.797 47.2734C184.797 46.1016 184.352 45.1953 183.461 44.5547C182.586 43.8984 181.047 43.3359 178.844 42.8672C176.656 42.3984 174.914 41.8359 173.617 41.1797C172.336 40.5234 171.383 39.7422 170.758 38.8359C170.148 37.9297 169.844 36.8516 169.844 35.6016C169.844 33.5234 170.719 31.7656 172.469 30.3281C174.234 28.8906 176.484 28.1719 179.219 28.1719C182.094 28.1719 184.422 28.9141 186.203 30.3984C188 31.8828 188.898 33.7812 188.898 36.0938H184.539C184.539 34.9062 184.031 33.8828 183.016 33.0234C182.016 32.1641 180.75 31.7344 179.219 31.7344C177.641 31.7344 176.406 32.0781 175.516 32.7656C174.625 33.4531 174.18 34.3516 174.18 35.4609C174.18 36.5078 174.594 37.2969 175.422 37.8281C176.25 38.3594 177.742 38.8672 179.898 39.3516C182.07 39.8359 183.828 40.4141 185.172 41.0859C186.516 41.7578 187.508 42.5703 188.148 43.5234C188.805 44.4609 189.133 45.6094 189.133 46.9688C189.133 49.2344 188.227 51.0547 186.414 52.4297C184.602 53.7891 182.25 54.4688 179.359 54.4688C177.328 54.4688 175.531 54.1094 173.969 53.3906C172.406 52.6719 171.18 51.6719 170.289 50.3906C169.414 49.0938 168.977 47.6953 168.977 46.1953H173.312C173.391 47.6484 173.969 48.8047 175.047 49.6641C176.141 50.5078 177.578 50.9297 179.359 50.9297C181 50.9297 182.312 50.6016 183.297 49.9453C184.297 49.2734 184.797 48.3828 184.797 47.2734Z" fill="#003985"/>
<path d="M92.7109 44.5547L91.5109 46.1547L91.5269 46.1667L91.5431 46.1783L92.7109 44.5547ZM88.0938 42.8672L87.6747 44.8228L87.6775 44.8234L88.0938 42.8672ZM82.8672 41.1797L81.9554 42.9598L81.9642 42.9642L82.8672 41.1797ZM80.0078 38.8359L78.3481 39.9519L78.3547 39.9617L78.3614 39.9714L80.0078 38.8359ZM81.7188 30.3281L80.456 28.7771L80.4493 28.7827L81.7188 30.3281ZM95.4531 30.3984L94.1727 31.9349L94.1794 31.9404L95.4531 30.3984ZM98.1484 36.0938V38.0938H100.148V36.0938H98.1484ZM93.7891 36.0938H91.7891V38.0938H93.7891V36.0938ZM92.2656 33.0234L90.9621 34.5403L90.9679 34.5453L90.9737 34.5502L92.2656 33.0234ZM89.1484 39.3516L88.7101 41.3029L88.7131 41.3036L89.1484 39.3516ZM97.3984 43.5234L95.7385 44.6391L95.7491 44.6548L95.76 44.6704L97.3984 43.5234ZM95.6641 52.4297L96.8641 54.0297L96.8728 54.0231L95.6641 52.4297ZM79.5391 50.3906L77.8811 51.5092L77.8889 51.5208L77.8968 51.5322L79.5391 50.3906ZM78.2266 46.1953V44.1953H76.2266V46.1953H78.2266ZM82.5625 46.1953L84.5596 46.0879L84.4579 44.1953H82.5625V46.1953ZM84.2969 49.6641L83.0503 51.228L83.0627 51.2379L83.0753 51.2476L84.2969 49.6641ZM92.5469 49.9453L93.6563 51.6094L93.6623 51.6054L92.5469 49.9453ZM96.0469 47.2734C96.0469 45.5094 95.3323 43.9766 93.8788 42.9311L91.5431 46.1783C91.8708 46.4141 92.0469 46.6937 92.0469 47.2734H96.0469ZM93.9109 42.9547C92.6661 42.0211 90.7587 41.3894 88.51 40.911L87.6775 44.8234C89.835 45.2824 91.0057 45.7758 91.5109 46.1547L93.9109 42.9547ZM88.5128 40.9116C86.4134 40.4617 84.8549 39.944 83.7702 39.3952L81.9642 42.9642C83.4733 43.7279 85.3991 44.3352 87.6747 44.8228L88.5128 40.9116ZM83.7789 39.3996C82.7045 38.8493 82.0425 38.2635 81.6542 37.7005L78.3614 39.9714C79.2231 41.2209 80.4674 42.1976 81.9554 42.9598L83.7789 39.3996ZM81.6675 37.7199C81.3109 37.1896 81.0938 36.5133 81.0938 35.6016H77.0938C77.0938 37.1899 77.486 38.6698 78.3481 39.9519L81.6675 37.7199ZM81.0938 35.6016C81.0938 34.1805 81.6534 32.97 82.9882 31.8736L80.4493 28.7827C78.2841 30.5612 77.0938 32.8663 77.0938 35.6016H81.0938ZM82.9815 31.8791C84.3224 30.7874 86.0984 30.1719 88.4688 30.1719V26.1719C85.3704 26.1719 82.6464 26.9939 80.456 28.7772L82.9815 31.8791ZM88.4688 30.1719C90.9917 30.1719 92.8308 30.8166 94.1728 31.9349L96.7335 28.862C94.5129 27.0115 91.6958 26.1719 88.4688 26.1719V30.1719ZM94.1794 31.9404C95.5205 33.0483 96.1484 34.3832 96.1484 36.0938H100.148C100.148 33.1793 98.9795 30.7174 96.7269 28.8565L94.1794 31.9404ZM98.1484 34.0938H93.7891V38.0938H98.1484V34.0938ZM95.7891 36.0938C95.7891 34.2428 94.9615 32.6847 93.5575 31.4967L90.9737 34.5502C91.601 35.081 91.7891 35.5697 91.7891 36.0938H95.7891ZM93.5692 31.5066C92.149 30.2861 90.3967 29.7344 88.4688 29.7344V33.7344C89.6033 33.7344 90.3823 34.042 90.9621 34.5403L93.5692 31.5066ZM88.4688 29.7344C86.6226 29.7344 84.9008 30.1347 83.5435 31.1824L85.9877 34.3488C86.4117 34.0216 87.1586 33.7344 88.4688 33.7344V29.7344ZM83.5435 31.1824C82.1705 32.2423 81.4297 33.7216 81.4297 35.4609H85.4297C85.4297 34.9816 85.5795 34.6639 85.9877 34.3488L83.5435 31.1824ZM81.4297 35.4609C81.4297 37.1367 82.1478 38.5851 83.592 39.5115L85.7518 36.1447C85.5397 36.0087 85.4297 35.8789 85.4297 35.4609H81.4297ZM83.592 39.5115C84.7412 40.2488 86.5388 40.8152 88.7101 41.3029L89.5868 37.4002C87.4455 36.9192 86.2588 36.47 85.7518 36.1447L83.592 39.5115ZM88.7131 41.3036C90.7943 41.7678 92.3811 42.3016 93.5274 42.8748L95.3163 39.2971C93.7751 38.5265 91.8463 37.9041 89.5838 37.3995L88.7131 41.3036ZM93.5274 42.8748C94.6547 43.4384 95.3411 44.0478 95.7385 44.6391L99.0583 42.4078C98.1745 41.0928 96.8765 40.0772 95.3163 39.2971L93.5274 42.8748ZM95.76 44.6704C96.1394 45.2124 96.3828 45.9408 96.3828 46.9688H100.383C100.383 45.2779 99.97 43.7095 99.0369 42.3765L95.76 44.6704ZM96.3828 46.9688C96.3828 48.6057 95.7718 49.8376 94.4553 50.8363L96.8728 54.0231C99.1813 52.2718 100.383 49.8631 100.383 46.9688H96.3828ZM94.4641 50.8297C93.083 51.8655 91.1876 52.4688 88.6094 52.4688V56.4688C91.8124 56.4688 94.6201 55.7127 96.8641 54.0297L94.4641 50.8297ZM88.6094 52.4688C86.815 52.4688 85.3117 52.1519 84.0546 51.5736L82.3829 55.2076C84.2508 56.0668 86.3412 56.4688 88.6094 56.4688V52.4688ZM84.0546 51.5736C82.7822 50.9884 81.8478 50.2079 81.1813 49.2491L77.8968 51.5322C79.0116 53.1358 80.5303 54.3554 82.3829 55.2076L84.0546 51.5736ZM81.197 49.272C80.5348 48.2906 80.2266 47.2789 80.2266 46.1953H76.2266C76.2266 48.1117 76.7933 49.8969 77.8811 51.5092L81.197 49.272ZM78.2266 48.1953H82.5625V44.1953H78.2266V48.1953ZM80.5654 46.3027C80.6722 48.2904 81.4981 49.9908 83.0503 51.228L85.5435 48.1001C84.9394 47.6186 84.609 47.0065 84.5596 46.0879L80.5654 46.3027ZM83.0753 51.2476C84.609 52.4308 86.5151 52.9297 88.6094 52.9297V48.9297C87.1412 48.9297 86.1722 48.5848 85.5185 48.0805L83.0753 51.2476ZM88.6094 52.9297C90.4973 52.9297 92.239 52.5543 93.6563 51.6094L91.4375 48.2812C90.886 48.6488 90.0027 48.9297 88.6094 48.9297V52.9297ZM93.6623 51.6054C95.159 50.5998 96.0469 49.1139 96.0469 47.2734H92.0469C92.0469 47.6517 91.9348 47.9471 91.4315 48.2852L93.6623 51.6054ZM108.367 51.5391L109.851 50.1979L106.367 46.3443V51.5391H108.367ZM108.367 63.75V65.75H110.367V63.75H108.367ZM104.031 63.75H102.031V65.75H104.031V63.75ZM104.031 28.6406V26.6406H102.031V28.6406H104.031ZM107.992 28.6406L109.987 28.491L109.848 26.6406H107.992V28.6406ZM108.203 31.4531L106.209 31.6027L106.587 36.6403L109.759 32.7093L108.203 31.4531ZM122.781 31.6172L121.196 32.8361L121.201 32.8428L122.781 31.6172ZM108.367 35.3438L106.625 34.3616L106.367 34.8188V35.3438H108.367ZM108.367 47.4609H106.367V47.9835L106.623 48.4392L108.367 47.4609ZM119.266 48.4688L117.662 47.2736L117.66 47.2761L119.266 48.4688ZM123.453 41.6016C123.453 45.1626 122.64 47.8115 121.203 49.7314L124.406 52.128C126.5 49.3292 127.453 45.7593 127.453 41.6016H123.453ZM121.203 49.7314C119.826 51.5724 118.035 52.4688 115.633 52.4688V56.4688C119.261 56.4688 122.252 55.0057 124.406 52.128L121.203 49.7314ZM115.633 52.4688C113.015 52.4688 111.172 51.6596 109.851 50.1979L106.884 52.8803C109.093 55.3248 112.094 56.4688 115.633 56.4688V52.4688ZM106.367 51.5391V63.75H110.367V51.5391H106.367ZM108.367 61.75H104.031V65.75H108.367V61.75ZM106.031 63.75V28.6406H102.031V63.75H106.031ZM104.031 30.6406H107.992V26.6406H104.031V30.6406ZM105.998 28.7902L106.209 31.6027L110.198 31.3035L109.987 28.491L105.998 28.7902ZM109.759 32.7093C111.098 31.0513 112.946 30.1719 115.562 30.1719V26.1719C111.898 26.1719 108.84 27.4799 106.647 30.197L109.759 32.7093ZM115.562 30.1719C118.026 30.1719 119.831 31.0606 121.196 32.8361L124.367 30.3983C122.2 27.58 119.193 26.1719 115.562 26.1719V30.1719ZM121.201 32.8428C122.618 34.6709 123.453 37.376 123.453 41.2031H127.453C127.453 36.8428 126.507 33.1572 124.362 30.3915L121.201 32.8428ZM123.453 41.2031V41.6016H127.453V41.2031H123.453ZM123.117 41.1094C123.117 37.9861 122.453 35.2615 120.9 33.1506L117.678 35.5213C118.562 36.7229 119.117 38.5139 119.117 41.1094H123.117ZM120.9 33.1506C119.29 30.9623 117.009 29.8516 114.273 29.8516V33.8516C115.788 33.8516 116.851 34.3971 117.678 35.5213L120.9 33.1506ZM114.273 29.8516C110.91 29.8516 108.284 31.4188 106.625 34.3616L110.109 36.3259C111.075 34.6124 112.386 33.8516 114.273 33.8516V29.8516ZM106.367 35.3438V47.4609H110.367V35.3438H106.367ZM106.623 48.4392C107.418 49.8579 108.476 51.0066 109.821 51.7906C111.166 52.5741 112.689 52.9297 114.32 52.9297V48.9297C113.28 48.9297 112.475 48.7072 111.835 48.3344C111.196 47.9622 110.613 47.3764 110.112 46.4827L106.623 48.4392ZM114.32 52.9297C117.019 52.9297 119.268 51.82 120.871 49.6614L117.66 47.2761C116.826 48.3988 115.778 48.9297 114.32 48.9297V52.9297ZM120.869 49.6639C122.471 47.5148 123.117 44.56 123.117 41.1094H119.117C119.117 44.1588 118.529 46.1102 117.662 47.2736L120.869 49.6639ZM135.695 54V56H137.695V54H135.695ZM131.359 54H129.359V56H131.359V54ZM131.359 18V16H129.359V18H131.359ZM135.695 18H137.695V16H135.695V18ZM135.695 52H131.359V56H135.695V52ZM133.359 54V18H129.359V54H133.359ZM131.359 20H135.695V16H131.359V20ZM133.695 18V54H137.695V18H133.695ZM147.367 54V56H149.367V54H147.367ZM143.031 54H141.031V56H143.031V54ZM143.031 28.6406V26.6406H141.031V28.6406H143.031ZM147.367 28.6406H149.367V26.6406H147.367V28.6406ZM143.312 20.1328L141.828 18.7922L141.816 18.8056L141.804 18.8193L143.312 20.1328ZM143.312 23.6719L141.826 25.0098L141.838 25.0233L141.85 25.0365L143.312 23.6719ZM147.367 52H143.031V56H147.367V52ZM145.031 54V28.6406H141.031V54H145.031ZM143.031 30.6406H147.367V26.6406H143.031V30.6406ZM145.367 28.6406V54H149.367V28.6406H145.367ZM144.68 21.9141C144.68 21.6446 144.747 21.5311 144.821 21.4464L141.804 18.8193C141.034 19.7032 140.68 20.7773 140.68 21.9141H144.68ZM144.797 21.4734C144.798 21.4723 144.798 21.4723 144.797 21.4729C144.796 21.4735 144.796 21.4737 144.796 21.4735C144.797 21.4732 144.799 21.4718 144.804 21.4694C144.808 21.467 144.816 21.4632 144.828 21.4587C144.877 21.4403 145 21.4062 145.234 21.4062V17.4062C144.001 17.4062 142.749 17.7732 141.828 18.7922L144.797 21.4734ZM145.234 21.4062C145.469 21.4062 145.592 21.4403 145.64 21.4587C145.652 21.4632 145.66 21.467 145.665 21.4694C145.67 21.4718 145.672 21.4732 145.672 21.4735C145.673 21.4737 145.672 21.4735 145.672 21.4729C145.671 21.4723 145.671 21.4723 145.672 21.4734L148.64 18.7922C147.72 17.7732 146.468 17.4062 145.234 17.4062V21.4062ZM145.672 21.4734C145.751 21.5604 145.812 21.6646 145.812 21.9141H149.812C149.812 20.7573 149.437 19.674 148.64 18.7922L145.672 21.4734ZM145.812 21.9141C145.812 22.1638 145.751 22.246 145.694 22.3072L148.618 25.0365C149.436 24.1603 149.812 23.0705 149.812 21.9141H145.812ZM145.694 22.3072C145.703 22.2973 145.705 22.3047 145.66 22.321C145.606 22.3411 145.475 22.375 145.234 22.375V26.375C146.449 26.375 147.693 26.0277 148.618 25.0365L145.694 22.3072ZM145.234 22.375C144.993 22.375 144.863 22.3411 144.808 22.321C144.764 22.3047 144.765 22.2973 144.775 22.3072L141.85 25.0365C142.776 26.0277 144.02 26.375 145.234 26.375V22.375ZM144.799 22.3339C144.746 22.2755 144.68 22.1843 144.68 21.9141H140.68C140.68 23.0501 141.035 24.1307 141.826 25.0098L144.799 22.3339ZM160.211 22.5H162.211V20.5H160.211V22.5ZM160.211 28.6406H158.211V30.6406H160.211V28.6406ZM164.945 28.6406H166.945V26.6406H164.945V28.6406ZM164.945 31.9922V33.9922H166.945V31.9922H164.945ZM160.211 31.9922V29.9922H158.211V31.9922H160.211ZM160.844 50.0156L159.296 51.2821L159.305 51.2938L159.315 51.3054L160.844 50.0156ZM165.062 50.4844H167.062V48.0104L164.643 48.5288L165.062 50.4844ZM165.062 54L165.591 55.9289L167.062 55.5258V54H165.062ZM155.875 31.9922H157.875V29.9922H155.875V31.9922ZM151.258 31.9922H149.258V33.9922H151.258V31.9922ZM151.258 28.6406V26.6406H149.258V28.6406H151.258ZM155.875 28.6406V30.6406H157.875V28.6406H155.875ZM155.875 22.5V20.5H153.875V22.5H155.875ZM158.211 22.5V28.6406H162.211V22.5H158.211ZM160.211 30.6406H164.945V26.6406H160.211V30.6406ZM162.945 28.6406V31.9922H166.945V28.6406H162.945ZM164.945 29.9922H160.211V33.9922H164.945V29.9922ZM158.211 31.9922V47.7188H162.211V31.9922H158.211ZM158.211 47.7188C158.211 48.9649 158.463 50.2639 159.296 51.2821L162.392 48.7491C162.381 48.7361 162.211 48.5038 162.211 47.7188H158.211ZM159.315 51.3054C160.286 52.4564 161.721 52.7656 163 52.7656V48.7656C162.646 48.7656 162.447 48.7207 162.356 48.6891C162.28 48.6626 162.316 48.6595 162.372 48.7259L159.315 51.3054ZM163 52.7656C163.71 52.7656 164.559 52.6378 165.482 52.44L164.643 48.5288C163.816 48.706 163.29 48.7656 163 48.7656V52.7656ZM163.062 50.4844V54H167.062V50.4844H163.062ZM164.534 52.0711C163.549 52.3409 162.618 52.4688 161.734 52.4688V56.4688C163.007 56.4688 164.295 56.2841 165.591 55.9289L164.534 52.0711ZM161.734 52.4688C160.218 52.4688 159.39 52.0282 158.883 51.4246L155.82 53.9973C157.282 55.7374 159.376 56.4688 161.734 56.4688V52.4688ZM158.883 51.4246C158.304 50.7357 157.875 49.5944 157.875 47.7188H153.875C153.875 50.1556 154.43 52.3424 155.82 53.9973L158.883 51.4246ZM157.875 47.7188V31.9922H153.875V47.7188H157.875ZM155.875 29.9922H151.258V33.9922H155.875V29.9922ZM153.258 31.9922V28.6406H149.258V31.9922H153.258ZM151.258 30.6406H155.875V26.6406H151.258V30.6406ZM157.875 28.6406V22.5H153.875V28.6406H157.875ZM155.875 24.5H160.211V20.5H155.875V24.5ZM183.461 44.5547L182.261 46.1547L182.277 46.1667L182.293 46.1783L183.461 44.5547ZM178.844 42.8672L178.425 44.8228L178.428 44.8234L178.844 42.8672ZM173.617 41.1797L172.705 42.9598L172.714 42.9642L173.617 41.1797ZM170.758 38.8359L169.098 39.9519L169.105 39.9617L169.111 39.9714L170.758 38.8359ZM172.469 30.3281L171.206 28.7771L171.199 28.7827L172.469 30.3281ZM186.203 30.3984L184.923 31.9349L184.929 31.9404L186.203 30.3984ZM188.898 36.0938V38.0938H190.898V36.0938H188.898ZM184.539 36.0938H182.539V38.0938H184.539V36.0938ZM183.016 33.0234L181.712 34.5403L181.718 34.5453L181.724 34.5502L183.016 33.0234ZM179.898 39.3516L179.46 41.3029L179.463 41.3036L179.898 39.3516ZM188.148 43.5234L186.489 44.6391L186.499 44.6548L186.51 44.6704L188.148 43.5234ZM186.414 52.4297L187.614 54.0297L187.623 54.0231L186.414 52.4297ZM170.289 50.3906L168.631 51.5092L168.639 51.5208L168.647 51.5322L170.289 50.3906ZM168.977 46.1953V44.1953H166.977V46.1953H168.977ZM173.312 46.1953L175.31 46.0879L175.208 44.1953H173.312V46.1953ZM175.047 49.6641L173.8 51.228L173.813 51.2379L173.825 51.2476L175.047 49.6641ZM183.297 49.9453L184.406 51.6094L184.412 51.6054L183.297 49.9453ZM186.797 47.2734C186.797 45.5094 186.082 43.9766 184.629 42.9311L182.293 46.1783C182.621 46.4141 182.797 46.6937 182.797 47.2734H186.797ZM184.661 42.9547C183.416 42.0211 181.509 41.3894 179.26 40.911L178.428 44.8234C180.585 45.2824 181.756 45.7758 182.261 46.1547L184.661 42.9547ZM179.263 40.9116C177.163 40.4617 175.605 39.944 174.52 39.3952L172.714 42.9642C174.223 43.7279 176.149 44.3352 178.425 44.8228L179.263 40.9116ZM174.529 39.3996C173.454 38.8493 172.793 38.2635 172.404 37.7005L169.111 39.9714C169.973 41.2209 171.217 42.1976 172.705 42.9598L174.529 39.3996ZM172.417 37.7199C172.061 37.1896 171.844 36.5133 171.844 35.6016H167.844C167.844 37.1899 168.236 38.6698 169.098 39.9519L172.417 37.7199ZM171.844 35.6016C171.844 34.1805 172.403 32.97 173.738 31.8736L171.199 28.7827C169.034 30.5612 167.844 32.8663 167.844 35.6016H171.844ZM173.731 31.8791C175.072 30.7874 176.848 30.1719 179.219 30.1719V26.1719C176.12 26.1719 173.396 26.9939 171.206 28.7772L173.731 31.8791ZM179.219 30.1719C181.742 30.1719 183.581 30.8166 184.923 31.9349L187.483 28.862C185.263 27.0115 182.446 26.1719 179.219 26.1719V30.1719ZM184.929 31.9404C186.271 33.0483 186.898 34.3832 186.898 36.0938H190.898C190.898 33.1793 189.729 30.7174 187.477 28.8565L184.929 31.9404ZM188.898 34.0938H184.539V38.0938H188.898V34.0938ZM186.539 36.0938C186.539 34.2428 185.712 32.6847 184.308 31.4967L181.724 34.5502C182.351 35.081 182.539 35.5697 182.539 36.0938H186.539ZM184.319 31.5066C182.899 30.2861 181.147 29.7344 179.219 29.7344V33.7344C180.353 33.7344 181.132 34.042 181.712 34.5403L184.319 31.5066ZM179.219 29.7344C177.373 29.7344 175.651 30.1347 174.294 31.1824L176.738 34.3488C177.162 34.0216 177.909 33.7344 179.219 33.7344V29.7344ZM174.294 31.1824C172.92 32.2423 172.18 33.7216 172.18 35.4609H176.18C176.18 34.9816 176.33 34.6639 176.738 34.3488L174.294 31.1824ZM172.18 35.4609C172.18 37.1367 172.898 38.5851 174.342 39.5115L176.502 36.1447C176.29 36.0087 176.18 35.8789 176.18 35.4609H172.18ZM174.342 39.5115C175.491 40.2488 177.289 40.8152 179.46 41.3029L180.337 37.4002C178.196 36.9192 177.009 36.47 176.502 36.1447L174.342 39.5115ZM179.463 41.3036C181.544 41.7678 183.131 42.3016 184.277 42.8748L186.066 39.2971C184.525 38.5265 182.596 37.9041 180.334 37.3995L179.463 41.3036ZM184.277 42.8748C185.405 43.4384 186.091 44.0478 186.489 44.6391L189.808 42.4078C188.924 41.0928 187.627 40.0772 186.066 39.2971L184.277 42.8748ZM186.51 44.6704C186.889 45.2124 187.133 45.9408 187.133 46.9688H191.133C191.133 45.2779 190.72 43.7095 189.787 42.3765L186.51 44.6704ZM187.133 46.9688C187.133 48.6057 186.522 49.8376 185.205 50.8363L187.623 54.0231C189.931 52.2718 191.133 49.8631 191.133 46.9688H187.133ZM185.214 50.8297C183.833 51.8655 181.938 52.4688 179.359 52.4688V56.4688C182.562 56.4688 185.37 55.7127 187.614 54.0297L185.214 50.8297ZM179.359 52.4688C177.565 52.4688 176.062 52.1519 174.805 51.5736L173.133 55.2076C175.001 56.0668 177.091 56.4688 179.359 56.4688V52.4688ZM174.805 51.5736C173.532 50.9884 172.598 50.2079 171.931 49.2491L168.647 51.5322C169.762 53.1358 171.28 54.3554 173.133 55.2076L174.805 51.5736ZM171.947 49.272C171.285 48.2906 170.977 47.2789 170.977 46.1953H166.977C166.977 48.1117 167.543 49.8969 168.631 51.5092L171.947 49.272ZM168.977 48.1953H173.312V44.1953H168.977V48.1953ZM171.315 46.3027C171.422 48.2904 172.248 49.9908 173.8 51.228L176.294 48.1001C175.689 47.6186 175.359 47.0065 175.31 46.0879L171.315 46.3027ZM173.825 51.2476C175.359 52.4308 177.265 52.9297 179.359 52.9297V48.9297C177.891 48.9297 176.922 48.5848 176.268 48.0805L173.825 51.2476ZM179.359 52.9297C181.247 52.9297 182.989 52.5543 184.406 51.6094L182.187 48.2812C181.636 48.6488 180.753 48.9297 179.359 48.9297V52.9297ZM184.412 51.6054C185.909 50.5998 186.797 49.1139 186.797 47.2734H182.797C182.797 47.6517 182.685 47.9471 182.181 48.2852L184.412 51.6054Z" fill="#003479"/>
<defs>
<linearGradient id="paint0_linear_15:28" x1="22.9457" y1="81.2349" x2="48.8127" y2="21.4458" gradientUnits="userSpaceOnUse">
<stop stop-color="#3B7DD4"/>
<stop offset="1" stop-color="#396074"/>
</linearGradient>
<linearGradient id="paint1_linear_15:28" x1="48.084" y1="4.70028" x2="33.6147" y2="60.2801" gradientUnits="userSpaceOnUse">
<stop stop-color="#F804DE"/>
<stop offset="1" stop-color="#FC0048"/>
</linearGradient>
</defs>
</svg>
